# xmcd CD database file
#
# Track frame offsets:
#	150
#	12307
#	26900
#	40537
#	55951
#	69386
#	85187
#	100271
#	113845
#	127813
#	143861
#	157102
#	173401
#	186732
#	201703
#	217677
#
# Disc length: 3074 seconds
#
# Revision: 4
# Processed by: cddbd v1.4PL0 Copyright (c) Steve Scherf et al.
# Submitted via: CDex 1.51
#
DISCID=df0c0010
DTITLE=Middle of the Road - The Original Hits
DYEAR=1990
DGENRE=Country
TTITLE0=Yellow Boomerang
TTITLE1=The Talk Of All The USA
TTITLE2=Samson And Delilah
TTITLE3=Try A Little Understanding
TTITLE4=Kailakee Kailakoo
TTITLE5=Louise (My Little Ship)
TTITLE6=Honey No
TTITLE7=Chirpy Chirpy Cheep Cheep
TTITLE8=Soley Soley
TTITLE9=Medicine Woman
TTITLE10=Sacramento (A Wonderful Town)
TTITLE11=Love Sweet Love
TTITLE12=Queen Bee
TTITLE13=Tweedle Dee, Tweedle Dum
TTITLE14=I Can't Tell The Bottom From The Top
TTITLE15=Yellow River
EXTD=YEAR: 1990
EXTT0=
EXTT1=
EXTT2=
EXTT3=
EXTT4=
EXTT5=
EXTT6=
EXTT7=
EXTT8=
EXTT9=
EXTT10=
EXTT11=
EXTT12=
EXTT13=
EXTT14=
EXTT15=
PLAYORDER=
